<svg width="24" height="24" viewBox="0 0 24 24" fill="none" xmlns="http://www.w3.org/2000/svg">
<path d="M21.4294 13.5716L21.4294 9.17157C21.4294 4.45728 19.5437 2.57157 14.8294 2.57157L9.17226 2.57157C4.45798 2.57157 2.57226 4.45728 2.57226 9.17157L2.57227 14.8287C2.57227 19.543 4.45798 21.4287 9.17227 21.4287L13.5723 21.4287" stroke="#0A49A5" stroke-width="1.5" stroke-linecap="round" stroke-linejoin="round"/>
<path d="M15.209 9.9375C15.9684 9.9375 16.584 9.32189 16.584 8.5625C16.584 7.80311 15.9684 7.1875 15.209 7.1875C14.4496 7.1875 13.834 7.80311 13.834 8.5625C13.834 9.32189 14.4496 9.9375 15.209 9.9375Z" stroke="#0A49A5" stroke-width="1.5" stroke-miterlimit="10" stroke-linecap="round" stroke-linejoin="round"/>
<path d="M8.79102 9.9375C9.55041 9.9375 10.166 9.32189 10.166 8.5625C10.166 7.80311 9.55041 7.1875 8.79102 7.1875C8.03162 7.1875 7.41602 7.80311 7.41602 8.5625C7.41602 9.32189 8.03162 9.9375 8.79102 9.9375Z" stroke="#0A49A5" stroke-width="1.5" stroke-miterlimit="10" stroke-linecap="round" stroke-linejoin="round"/>
<path d="M13.5706 17.1069C10.4277 17.1069 8.85631 15.9284 7.67773 14.3569" stroke="#0A49A5" stroke-width="1.5" stroke-miterlimit="10" stroke-linecap="round" stroke-linejoin="round"/>
<path d="M21.4294 13.5716L17.5008 13.5716C14.5544 13.5716 13.5723 14.5537 13.5723 17.5001L13.5723 21.4287L21.4294 13.5716Z" stroke="#0A49A5" stroke-width="1.5" stroke-linecap="round" stroke-linejoin="round"/>
</svg>
