<svg width="32" height="32" viewBox="0 0 32 32" fill="none" xmlns="http://www.w3.org/2000/svg">
<rect width="32" height="32" rx="13" fill="#F2C94C"/>
<path d="M7.66699 7.66666H9.117C10.017 7.66666 10.7253 8.44166 10.6503 9.33332L9.95866 17.6333C9.84199 18.9916 10.917 20.1583 12.2837 20.1583H21.1587C22.3587 20.1583 23.4087 19.175 23.5003 17.9833L23.9503 11.7333C24.0503 10.35 23.0003 9.22499 21.6087 9.22499H10.8503" stroke="white" stroke-width="1.5" stroke-miterlimit="10" stroke-linecap="round" stroke-linejoin="round"/>
<path d="M19.5417 24.3333C20.117 24.3333 20.5833 23.867 20.5833 23.2917C20.5833 22.7164 20.117 22.25 19.5417 22.25C18.9664 22.25 18.5 22.7164 18.5 23.2917C18.5 23.867 18.9664 24.3333 19.5417 24.3333Z" stroke="white" stroke-width="1.5" stroke-miterlimit="10" stroke-linecap="round" stroke-linejoin="round"/>
<path d="M12.8747 24.3333C13.45 24.3333 13.9163 23.867 13.9163 23.2917C13.9163 22.7164 13.45 22.25 12.8747 22.25C12.2994 22.25 11.833 22.7164 11.833 23.2917C11.833 23.867 12.2994 24.3333 12.8747 24.3333Z" stroke="white" stroke-width="1.5" stroke-miterlimit="10" stroke-linecap="round" stroke-linejoin="round"/>
<path d="M13.5 12.6667H23.5" stroke="white" stroke-width="1.5" stroke-miterlimit="10" stroke-linecap="round" stroke-linejoin="round"/>
</svg>
