<svg width="24" height="24" viewBox="0 0 24 24" fill="none" xmlns="http://www.w3.org/2000/svg">
<path d="M16.4 3H7.6C4.50721 3 2 5.50721 2 8.6V15.4C2 18.4928 4.50721 21 7.6 21H16.4C19.4928 21 22 18.4928 22 15.4V8.6C22 5.50721 19.4928 3 16.4 3Z" stroke="#0A49A5" stroke-width="1.66"/>
<path d="M7.57178 15.0806C6.49756 15.0806 5.70443 14.8013 5.19238 14.2427C4.68392 13.6841 4.42969 12.8158 4.42969 11.6377C4.42969 9.37109 5.49316 8.23779 7.62012 8.23779C7.91016 8.23779 8.21452 8.26644 8.5332 8.32373C8.85547 8.38102 9.12402 8.46159 9.33887 8.56543C9.55371 8.66569 9.66113 8.77848 9.66113 8.90381C9.66113 8.99333 9.62533 9.11149 9.55371 9.2583C9.4821 9.40153 9.39795 9.52865 9.30127 9.63965C9.20459 9.75065 9.11865 9.80615 9.04346 9.80615C9.02197 9.80615 8.97005 9.78825 8.8877 9.75244C8.70866 9.68083 8.52067 9.62174 8.32373 9.5752C8.12679 9.52507 7.8833 9.5 7.59326 9.5C7.03109 9.5 6.61393 9.67904 6.3418 10.0371C6.07324 10.3916 5.93896 10.9287 5.93896 11.6484C5.93896 12.3682 6.07503 12.9106 6.34717 13.2759C6.6193 13.6411 7.02751 13.8237 7.57178 13.8237C7.84749 13.8237 8.09635 13.8005 8.31836 13.7539V12.5454H7.4751C7.37484 12.5454 7.30143 12.5078 7.25488 12.4326C7.21191 12.3574 7.19043 12.2357 7.19043 12.0674V11.7612C7.19043 11.5965 7.21191 11.4766 7.25488 11.4014C7.30143 11.3262 7.37484 11.2886 7.4751 11.2886H9.41406C9.55013 11.2886 9.6486 11.319 9.70947 11.3799C9.77035 11.4372 9.80078 11.5321 9.80078 11.6646V14.3232C9.80078 14.6097 9.56087 14.8084 9.08105 14.9194C8.60124 15.0269 8.09814 15.0806 7.57178 15.0806Z" fill="#0A49A5"/>
<path d="M12.3701 15.0269C12.1767 15.0269 12.0317 15 11.935 14.9463C11.8419 14.8926 11.7954 14.8156 11.7954 14.7153V8.60303C11.7954 8.39176 11.987 8.28613 12.3701 8.28613H12.7031C12.9 8.28613 13.0433 8.31299 13.1328 8.3667C13.2259 8.42041 13.2724 8.49919 13.2724 8.60303V14.7153C13.2724 14.923 13.0827 15.0269 12.7031 15.0269H12.3701Z" fill="#0A49A5"/>
<path d="M15.8955 15.0161C15.5123 15.0161 15.3208 14.9159 15.3208 14.7153V8.69434C15.3208 8.56185 15.3512 8.46696 15.4121 8.40967C15.4729 8.3488 15.5696 8.31836 15.7021 8.31836H18.8925C18.9928 8.31836 19.0644 8.35596 19.1074 8.43115C19.1539 8.50635 19.1772 8.62809 19.1772 8.79639V9.08643C19.1772 9.25472 19.1539 9.37646 19.1074 9.45166C19.0644 9.52686 18.9928 9.56445 18.8925 9.56445H16.7924V10.9609H18.8227C18.923 10.9609 18.9964 10.9985 19.0429 11.0737C19.0895 11.1489 19.1128 11.2689 19.1128 11.4336V11.729C19.1128 11.8973 19.0895 12.0208 19.0429 12.0996C18.9964 12.1748 18.923 12.2124 18.8227 12.2124H16.7924V14.7153C16.7924 14.9159 16.6009 15.0161 16.2177 15.0161H15.8955Z" fill="#0A49A5"/>
</svg>
