<svg width="32" height="32" viewBox="0 0 32 32" fill="none" xmlns="http://www.w3.org/2000/svg">
<rect width="32" height="32" rx="13" fill="#44BE2E"/>
<path d="M23.677 12.7534C22.9938 11.1369 21.7979 9.72477 20.1669 8.7831C16.1832 6.4831 11.0834 7.8496 8.78337 11.8333C6.48337 15.817 7.84986 20.9169 11.8336 23.2169C15.8173 25.5169 20.9171 24.1504 23.2171 20.1666" stroke="white" stroke-width="1.5" stroke-linecap="round" stroke-linejoin="round"/>
<path fill-rule="evenodd" clip-rule="evenodd" d="M11.833 20.1667V11.8333H12.6561C13.1019 11.8668 13.9935 12.1546 13.9935 13.0381V15.1466H16.6684V16.6526H13.9935V18.4598H20.1663V20.1667H11.833ZM20.0635 11.8333H15.7425C15.4681 11.8333 14.9194 11.9739 14.9194 12.5361V13.741H19.2404C19.5148 13.741 20.0635 13.6004 20.0635 13.0381V11.8333Z" fill="white"/>
</svg>
