<svg width="32" height="32" viewBox="0 0 32 32" fill="none" xmlns="http://www.w3.org/2000/svg">
<rect width="32" height="32" rx="13" fill="#2D9CDB"/>
<path d="M22.0831 12.6V16.8917C22.0831 19.4583 20.6165 20.5583 18.4165 20.5583H11.0915C10.7165 20.5583 10.3581 20.525 10.0248 20.45C9.81647 20.4167 9.61647 20.3584 9.43314 20.2917C8.18314 19.825 7.4248 18.7417 7.4248 16.8917V12.6C7.4248 10.0333 8.89147 8.93335 11.0915 8.93335H18.4165C20.2831 8.93335 21.6248 9.72501 21.9831 11.5333C22.0415 11.8667 22.0831 12.2083 22.0831 12.6Z" stroke="white" stroke-width="1.5" stroke-miterlimit="10" stroke-linecap="round" stroke-linejoin="round"/>
<path d="M24.5837 15.1001V19.3918C24.5837 21.9584 23.1171 23.0584 20.9171 23.0584H13.5921C12.9754 23.0584 12.4171 22.9751 11.9337 22.7918C10.9421 22.4251 10.2671 21.6668 10.0254 20.4501C10.3587 20.5251 10.7171 20.5584 11.0921 20.5584H18.4171C20.6171 20.5584 22.0837 19.4584 22.0837 16.8918V12.6001C22.0837 12.2084 22.0504 11.8584 21.9837 11.5334C23.5671 11.8668 24.5837 12.9834 24.5837 15.1001Z" stroke="white" stroke-width="1.5" stroke-miterlimit="10" stroke-linecap="round" stroke-linejoin="round"/>
<path d="M14.7488 16.9499C15.9639 16.9499 16.9489 15.9649 16.9489 14.7499C16.9489 13.5349 15.9639 12.5499 14.7488 12.5499C13.5338 12.5499 12.5488 13.5349 12.5488 14.7499C12.5488 15.9649 13.5338 16.9499 14.7488 16.9499Z" stroke="white" stroke-width="1.5" stroke-miterlimit="10" stroke-linecap="round" stroke-linejoin="round"/>
<path d="M9.9834 12.9167V16.5833" stroke="white" stroke-width="1.5" stroke-miterlimit="10" stroke-linecap="round" stroke-linejoin="round"/>
<path d="M19.5176 12.9169V16.5836" stroke="white" stroke-width="1.5" stroke-miterlimit="10" stroke-linecap="round" stroke-linejoin="round"/>
</svg>
