<svg width="30" height="30" viewBox="0 0 30 30" fill="none" xmlns="http://www.w3.org/2000/svg">
<path d="M18.7291 14.9999C18.7291 17.0624 17.0624 18.7291 14.9999 18.7291C12.9374 18.7291 11.2708 17.0624 11.2708 14.9999C11.2708 12.9374 12.9374 11.2708 14.9999 11.2708C17.0624 11.2708 18.7291 12.9374 18.7291 14.9999Z" stroke="#B1B1B5" stroke-width="1.5" stroke-linecap="round" stroke-linejoin="round"/>
<path d="M15.0001 23.6146C18.6772 23.6146 22.1042 21.4479 24.4897 17.6979C25.4272 16.2292 25.4272 13.7604 24.4897 12.2917C22.1042 8.54167 18.6772 6.375 15.0001 6.375C11.323 6.375 7.89591 8.54167 5.5105 12.2917C4.573 13.7604 4.573 16.2292 5.5105 17.6979C7.89591 21.4479 11.323 23.6146 15.0001 23.6146Z" stroke="#B1B1B5" stroke-width="1.5" stroke-linecap="round" stroke-linejoin="round"/>
</svg>
