<svg width="10" height="10" viewBox="0 0 10 10" fill="none" xmlns="http://www.w3.org/2000/svg">
<path d="M2.33594 4.12355V3.24733C2.33594 1.79718 2.77405 0.618652 4.96461 0.618652C7.15518 0.618652 7.59329 1.79718 7.59329 3.24733V4.12355" stroke="#C8C8C8" stroke-linecap="round" stroke-linejoin="round"/>
<path d="M4.96247 7.84779C5.56738 7.84779 6.05775 7.35742 6.05775 6.75251C6.05775 6.1476 5.56738 5.65723 4.96247 5.65723C4.35756 5.65723 3.86719 6.1476 3.86719 6.75251C3.86719 7.35742 4.35756 7.84779 4.96247 7.84779Z" stroke="#C8C8C8" stroke-linecap="round" stroke-linejoin="round"/>
<path d="M7.15372 9.38138H2.77259C1.02014 9.38138 0.582031 8.94326 0.582031 7.19081V6.31459C0.582031 4.56214 1.02014 4.12402 2.77259 4.12402H7.15372C8.90617 4.12402 9.34429 4.56214 9.34429 6.31459V7.19081C9.34429 8.94326 8.90617 9.38138 7.15372 9.38138Z" stroke="#C8C8C8" stroke-linecap="round" stroke-linejoin="round"/>
</svg>
