<svg width="32" height="32" viewBox="0 0 32 32" fill="none" xmlns="http://www.w3.org/2000/svg">
<rect width="32" height="32" rx="13" fill="#EF4062"/>
<path d="M24.3337 16V20.1667C24.3337 22.6667 22.667 24.3333 20.167 24.3333H11.8337C9.33366 24.3333 7.66699 22.6667 7.66699 20.1667V16C7.66699 13.7333 9.03366 12.15 11.1587 11.8833C11.3753 11.85 11.6003 11.8333 11.8337 11.8333H20.167C20.3837 11.8333 20.592 11.8417 20.792 11.875C22.942 12.125 24.3337 13.7167 24.3337 16Z" stroke="white" stroke-width="1.5" stroke-linecap="round" stroke-linejoin="round"/>
<path d="M20.7925 11.875C20.5925 11.8417 20.3842 11.8333 20.1675 11.8333H11.8342C11.6008 11.8333 11.3758 11.85 11.1592 11.8833C11.2758 11.65 11.4425 11.4333 11.6425 11.2333L14.3508 8.51667C15.4925 7.38334 17.3425 7.38334 18.4842 8.51667L19.9425 9.99169C20.4758 10.5167 20.7592 11.1833 20.7925 11.875Z" stroke="white" stroke-width="1.5" stroke-linecap="round" stroke-linejoin="round"/>
<path d="M24.3337 16.4167H21.8337C20.917 16.4167 20.167 17.1667 20.167 18.0833C20.167 19 20.917 19.75 21.8337 19.75H24.3337" stroke="white" stroke-width="1.5" stroke-linecap="round" stroke-linejoin="round"/>
</svg>
