<svg width="24" height="24" viewBox="0 0 24 24" fill="none" xmlns="http://www.w3.org/2000/svg">
<path d="M12.0008 21.1998C17.0818 21.1998 21.2008 17.0808 21.2008 11.9998C21.2008 6.91878 17.0818 2.7998 12.0008 2.7998C6.91976 2.7998 2.80078 6.91878 2.80078 11.9998C2.80078 17.0808 6.91976 21.1998 12.0008 21.1998Z" stroke="#0A49A5" stroke-width="1.66"/>
<path d="M12.0008 21.1998C14.8727 21.1998 17.2008 17.0808 17.2008 11.9998C17.2008 6.91878 14.8727 2.7998 12.0008 2.7998C9.1289 2.7998 6.80078 6.91878 6.80078 11.9998C6.80078 17.0808 9.1289 21.1998 12.0008 21.1998Z" stroke="#0A49A5" stroke-width="1.328"/>
<path d="M12 2.7998V21.1998" stroke="#0A49A5" stroke-width="1.328"/>
<path d="M2.80078 12H21.2008" stroke="#0A49A5" stroke-width="1.328"/>
<path d="M4.40039 17.6C4.40039 17.6 6.75364 16 12.0004 16C17.2472 16 19.6004 17.6 19.6004 17.6" stroke="#0A49A5" stroke-width="1.328"/>
<path d="M19.6004 6.3999C19.6004 6.3999 17.2472 7.9999 12.0004 7.9999C6.75364 7.9999 4.40039 6.3999 4.40039 6.3999" stroke="#0A49A5" stroke-width="1.328"/>
</svg>
