<svg width="24" height="24" viewBox="0 0 24 24" fill="none" xmlns="http://www.w3.org/2000/svg">
<path d="M12 22C17.5 22 22 17.5 22 12C22 6.5 17.5 2 12 2C6.5 2 2 6.5 2 12C2 17.5 6.5 22 12 22Z" stroke="#0A49A5" stroke-width="1.5" stroke-linecap="round" stroke-linejoin="round"/>
<path d="M9 9.00057C9.2351 8.33224 9.69915 7.76868 10.31 7.4097C10.9208 7.05073 11.6389 6.91951 12.3372 7.03928C13.0355 7.15906 13.6688 7.52209 14.1251 8.0641C14.5813 8.6061 14.8311 9.29209 14.83 10.0006C14.83 12.0006 11.83 13.0006 11.83 13.0006" stroke="#0A49A5" stroke-width="1.5" stroke-linecap="round" stroke-linejoin="round"/>
<path d="M11.9102 17H11.9202" stroke="#0A49A5" stroke-width="2" stroke-linecap="round" stroke-linejoin="round"/>
</svg>
