<svg width="32" height="32" viewBox="0 0 32 32" fill="none" xmlns="http://www.w3.org/2000/svg">
<rect width="32" height="32" rx="12" fill="#2D9CDB"/>
<path d="M13.6331 15.0583C13.5498 15.05 13.4498 15.05 13.3581 15.0583C11.3748 14.9916 9.7998 13.3666 9.7998 11.3666C9.7998 9.32496 11.4498 7.66663 13.4998 7.66663C15.5415 7.66663 17.1998 9.32496 17.1998 11.3666C17.1915 13.3666 15.6165 14.9916 13.6331 15.0583Z" stroke="white" stroke-width="1.5" stroke-linecap="round" stroke-linejoin="round"/>
<path d="M19.6752 9.33337C21.2919 9.33337 22.5919 10.6417 22.5919 12.25C22.5919 13.825 21.3419 15.1084 19.7836 15.1667C19.7169 15.1584 19.6419 15.1584 19.5669 15.1667" stroke="white" stroke-width="1.5" stroke-linecap="round" stroke-linejoin="round"/>
<path d="M9.4666 18.1334C7.44993 19.4834 7.44993 21.6834 9.4666 23.025C11.7583 24.5584 15.5166 24.5584 17.8083 23.025C19.8249 21.675 19.8249 19.475 17.8083 18.1334C15.5249 16.6084 11.7666 16.6084 9.4666 18.1334Z" stroke="white" stroke-width="1.5" stroke-linecap="round" stroke-linejoin="round"/>
<path d="M21.2832 22.6666C21.8832 22.5416 22.4499 22.3 22.9165 21.9416C24.2165 20.9666 24.2165 19.3583 22.9165 18.3833C22.4582 18.0333 21.8999 17.8 21.3082 17.6666" stroke="white" stroke-width="1.5" stroke-linecap="round" stroke-linejoin="round"/>
</svg>
