<svg width="32" height="32" viewBox="0 0 32 32" fill="none" xmlns="http://www.w3.org/2000/svg">
<rect width="32" height="32" rx="13" fill="#F2994A"/>
<path d="M8.5 13.5916V18.4C8.5 20.1666 8.5 20.1666 10.1667 21.2916L14.75 23.9416C15.4417 24.3416 16.5667 24.3416 17.25 23.9416L21.8333 21.2916C23.5 20.1666 23.5 20.1666 23.5 18.4083V13.5916C23.5 11.8333 23.5 11.8333 21.8333 10.7083L17.25 8.0583C16.5667 7.6583 15.4417 7.6583 14.75 8.0583L10.1667 10.7083C8.5 11.8333 8.5 11.8333 8.5 13.5916Z" stroke="white" stroke-width="1.5" stroke-linecap="round" stroke-linejoin="round"/>
<path d="M16 18.5C17.3807 18.5 18.5 17.3807 18.5 16C18.5 14.6193 17.3807 13.5 16 13.5C14.6193 13.5 13.5 14.6193 13.5 16C13.5 17.3807 14.6193 18.5 16 18.5Z" stroke="white" stroke-width="1.5" stroke-linecap="round" stroke-linejoin="round"/>
</svg>
