<svg width="32" height="32" viewBox="0 0 32 32" fill="none" xmlns="http://www.w3.org/2000/svg">
<rect width="32" height="32" rx="13" fill="#9B51E0"/>
<path d="M21.4163 22.25H18.083" stroke="white" stroke-width="1.5" stroke-linecap="round" stroke-linejoin="round"/>
<path d="M19.75 23.9167V20.5833" stroke="white" stroke-width="1.5" stroke-linecap="round" stroke-linejoin="round"/>
<path d="M16.1332 15.0583C16.0498 15.05 15.9498 15.05 15.8582 15.0583C13.8748 14.9917 12.2998 13.3667 12.2998 11.3667C12.2915 9.32499 13.9498 7.66666 15.9915 7.66666C18.0332 7.66666 19.6915 9.32499 19.6915 11.3667C19.6915 13.3667 18.1082 14.9917 16.1332 15.0583Z" stroke="white" stroke-width="1.5" stroke-linecap="round" stroke-linejoin="round"/>
<path d="M15.9912 24.175C14.4745 24.175 12.9662 23.7917 11.8162 23.025C9.79954 21.675 9.79954 19.475 11.8162 18.1333C14.1079 16.6 17.8662 16.6 20.1579 18.1333" stroke="white" stroke-width="1.5" stroke-linecap="round" stroke-linejoin="round"/>
</svg>
