<svg width="44" height="44" viewBox="0 0 44 44" fill="none" xmlns="http://www.w3.org/2000/svg">
<path d="M23.6538 10.8337C23.6538 9.91969 22.9128 9.17871 21.9988 9.17871C21.0847 9.17871 20.3438 9.91969 20.3438 10.8337V21.2898C20.3438 22.2112 20.7348 23.0893 21.4197 23.7056L28.8677 30.4088C29.5471 31.0203 30.5936 30.9652 31.2051 30.2858C31.8165 29.6064 31.7614 28.56 31.082 27.9485L23.6538 21.2631V10.8337Z" fill="#0A49A5"/>
<path fill-rule="evenodd" clip-rule="evenodd" d="M22 2C10.9543 2 2 10.9543 2 22C2 33.0457 10.9543 42 22 42C33.0457 42 42 33.0457 42 22C42 10.9543 33.0457 2 22 2ZM5.31007 22C5.31007 12.7824 12.7824 5.31007 22 5.31007C31.2176 5.31007 38.6899 12.7824 38.6899 22C38.6899 31.2176 31.2176 38.6899 22 38.6899C12.7824 38.6899 5.31007 31.2176 5.31007 22Z" fill="#0A49A5"/>
</svg>
