<svg width="24" height="24" viewBox="0 0 24 24" fill="none" xmlns="http://www.w3.org/2000/svg">
<path d="M5.03071 13.4288L5.76089 13.2575L5.03071 13.4288ZM5.03071 9.04969L5.76089 9.22097L5.76089 9.22097L5.03071 9.04969ZM17.4478 9.04969L18.178 8.87841L18.178 8.87841L17.4478 9.04969ZM17.4478 13.4288L18.178 13.6001L17.4478 13.4288ZM13.4288 17.4478L13.2575 16.7176L13.4288 17.4478ZM9.04969 17.4478L8.87841 18.178L9.04969 17.4478ZM9.04969 5.03071L8.87841 4.30052L9.04969 5.03071ZM13.4288 5.03071L13.6001 4.30052L13.6001 4.30052L13.4288 5.03071ZM18.6915 19.7521C18.9844 20.045 19.4592 20.045 19.7521 19.7521C20.045 19.4592 20.045 18.9844 19.7521 18.6915L18.6915 19.7521ZM5.76089 13.2575C5.4495 11.93 5.4495 10.5485 5.76089 9.22097L4.30053 8.87841C3.93628 10.4312 3.93628 12.0473 4.30053 13.6001L5.76089 13.2575ZM16.7176 9.22097C17.029 10.5485 17.029 11.93 16.7176 13.2575L18.178 13.6001C18.5422 12.0473 18.5422 10.4312 18.178 8.87841L16.7176 9.22097ZM13.2575 16.7176C11.93 17.029 10.5485 17.029 9.22097 16.7176L8.87841 18.178C10.4312 18.5422 12.0473 18.5422 13.6001 18.178L13.2575 16.7176ZM9.22097 5.76089C10.5485 5.4495 11.93 5.4495 13.2575 5.76089L13.6001 4.30052C12.0473 3.93628 10.4312 3.93628 8.87841 4.30052L9.22097 5.76089ZM9.22097 16.7176C7.50413 16.3149 6.1636 14.9744 5.76089 13.2575L4.30053 13.6001C4.83334 15.8716 6.60693 17.6452 8.87841 18.178L9.22097 16.7176ZM13.6001 18.178C15.8716 17.6452 17.6452 15.8716 18.178 13.6001L16.7176 13.2575C16.3149 14.9744 14.9744 16.3149 13.2575 16.7176L13.6001 18.178ZM13.2575 5.76089C14.9744 6.1636 16.3149 7.50413 16.7176 9.22097L18.178 8.87841C17.6452 6.60693 15.8716 4.83334 13.6001 4.30052L13.2575 5.76089ZM8.87841 4.30052C6.60693 4.83334 4.83334 6.60693 4.30053 8.87841L5.76089 9.22097C6.1636 7.50413 7.50413 6.1636 9.22097 5.76089L8.87841 4.30052ZM15.7505 16.8112L18.6915 19.7521L19.7521 18.6915L16.8112 15.7505L15.7505 16.8112Z" fill="#0A49A5"/>
</svg>
