<svg width="30" height="30" viewBox="0 0 30 30" fill="none" xmlns="http://www.w3.org/2000/svg">
<path d="M17.5299 12.4699L12.4699 17.5299C11.8199 16.8799 11.4199 15.9899 11.4199 14.9999C11.4199 13.0199 13.0199 11.4199 14.9999 11.4199C15.9899 11.4199 16.8799 11.8199 17.5299 12.4699Z" stroke="#B1B1B5" stroke-width="1.5" stroke-linecap="round" stroke-linejoin="round"/>
<path d="M20.8198 8.76998C19.0698 7.44998 17.0698 6.72998 14.9998 6.72998C11.4698 6.72998 8.17984 8.80998 5.88984 12.41C4.98984 13.82 4.98984 16.19 5.88984 17.6C6.67984 18.84 7.59984 19.91 8.59984 20.77" stroke="#B1B1B5" stroke-width="1.5" stroke-linecap="round" stroke-linejoin="round"/>
<path d="M11.4199 22.5302C12.5599 23.0102 13.7699 23.2702 14.9999 23.2702C18.5299 23.2702 21.8199 21.1902 24.1099 17.5902C25.0099 16.1802 25.0099 13.8102 24.1099 12.4002C23.7799 11.8802 23.4199 11.3902 23.0499 10.9302" stroke="#B1B1B5" stroke-width="1.5" stroke-linecap="round" stroke-linejoin="round"/>
<path d="M18.5098 15.7C18.2498 17.11 17.0998 18.26 15.6898 18.52" stroke="#B1B1B5" stroke-width="1.5" stroke-linecap="round" stroke-linejoin="round"/>
<path d="M12.47 17.53L5 25" stroke="#B1B1B5" stroke-width="1.5" stroke-linecap="round" stroke-linejoin="round"/>
<path d="M25.0001 5L17.5301 12.47" stroke="#B1B1B5" stroke-width="1.5" stroke-linecap="round" stroke-linejoin="round"/>
</svg>
